<?xml version="1.0" encoding="UTF-8"?>
<svg id="Layer_1" data-name="Layer 1" xmlns="http://www.w3.org/2000/svg" viewBox="0 0 215.43 245.31">
  <defs>
    <style>
      .cls-1 {
        fill: #3be0ff;
      }
    </style>
  </defs>
  <path class="cls-1" d="M90.36,0c-23.73,0-42.97,19.24-42.97,42.97s19.24,42.97,42.97,42.97,42.97-19.24,42.97-42.97S114.09,0,90.36,0ZM110.83,58.88h-8.77c-2.18,0-4.18-1.15-5.29-3.02l-5.42-10.08s-.03-.05-.05-.09l3.89-2.25v-5.59l-4.83-2.79-4.83,2.79v5.59l3.89,2.25s-.03.05-.05.09l-5.42,10.08c-1.1,1.88-3.12,3.02-5.29,3.02h-8.77c-1.95,0-3.16-2.12-2.17-3.79l20.47-34.81c.97-1.66,3.36-1.66,4.34,0l20.47,34.8c.99,1.67-.22,3.79-2.17,3.79h0Z"/>
  <path d="M212.66,76.41c-5.34,4.01-10.15-2.14-10.15-2.14-8.01,2.67-15.75-6.94-15.75-6.94-3.46-.8-6.13,0-6.13,0-8.27,1.6-5.07,17.09-5.07,17.09,6.68,24.3-10.15,65.42-10.15,65.42-6.94,9.08,9.62,14.69,9.62,14.69,8.54,3.46,11.22,14.95,11.22,14.95l13.07,42.98c1.62,6.14-6.4,4.54-6.4,4.54-13.08-7.21-6.68-13.35-6.68-13.35,3.74-1.34,2.93-2.94,2.93-2.94-2.41-.8-3.74-2.66-3.74-2.66-3.46-29.92-19.76-36.59-19.76-36.59-15.22-5.6-13.62,3.74-13.62,3.74,1.07,14.95-4,16.03-4,16.03-7.21,6.67-2.94,35.25-2.94,35.25,1.88,3.74,8.28,12.82,8.28,12.82,2.13,7.47-7.21,5.87-7.21,5.87-14.43-3.2-10.15-12.55-10.15-12.55,1.6-2.68-.8-5.61-.8-5.61-4.54-6.14,1.07-11.75,1.07-11.75l1.6-24.03c-3.46-10.15,2.41-30.97,2.41-30.97-9.09,0-10.94-9.61-10.94-9.61-7.48,5.87-47.55,3.74-47.55,3.74-.8,9.07-9.87,17.89-9.87,17.89-6.95,8.28,8.53,25.36,8.53,25.36,11.76,6.14,16.02,25.09,16.02,25.09,1.87,9.89-9.35,2.94-9.35,2.94-9.36-5.34-5.34-9.87-5.34-9.87,4.02-1.34,1.61-4,1.61-4-5.87-.27-5.87-6.14-5.87-6.14-2.13-6.68-17.1-16.83-17.1-16.83-10.94-7.74-5.59-14.95-5.59-14.95,2.54-5.37,3.02-9.57,2.63-12.76,24.09-2.69,24.98-32.05,24.98-32.05-8.98,31.13-28.94,23.99-28.94,23.99-4.81,14.95-26.97,20.56-26.97,20.56-2.67,11.21-8.54,18.16-8.54,18.16l-2.13,20.82c4.28,1.61,3.2,11.22,3.2,11.22,2.67.53,6.94,8.01,6.94,8.01,1.61,7.48-8.01,5.88-8.01,5.88-12.29,0-5.87-14.43-5.87-14.43-7.48-5.34,0-36.31,0-36.31-1.06-20.83,4.28-22.97,4.28-22.97,16.57-6.41,17.63-21.36,17.63-21.36-9.62-29.38,3.2-41.13,3.2-41.13-4.28-3.74-8.01,6.95-8.01,6.95C22.82,148.47.39,161.29.39,161.29c-5.34-66.76,45.93-67.29,45.93-67.29,14.43-10.68,29.12-2.84,38.45-.53,36.94,9.11,42.2-11.75,42.2-11.75,17.62-45.93,49.14-49.67,49.14-49.67l10.42-14.69,1.6,15.49,6.14-13.09.8,14.69c3.46.8,14.95,23.77,14.95,23.77,10.4,10.72,2.66,18.19,2.66,18.19Z"/>
</svg>